<svg xmlns="http://www.w3.org/2000/svg" xmlns:xlink="http://www.w3.org/1999/xlink" xml:space="preserve" id="Calque_1" x="0" y="0" enable-background="new 0 0 2500 1600" version="1.1" viewBox="0 0 2500 1600"><g id="background"><linearGradient id="SVGID_1_" x1="1250" x2="1250" y1="663" y2="1591.55" gradientTransform="matrix(1 0 0 -1 0 1600)" gradientUnits="userSpaceOnUse"><stop offset="0" stop-color="#ff47ff"/><stop offset=".49" stop-color="#0831bf"/><stop offset="1" stop-color="#000434"/></linearGradient><rect width="2500" height="1264.3" style="fill:url(#SVGID_1_)"/><circle cx="468.8" cy="590.9" r="2.7" style="fill:#fff"/><circle cx="93.8" cy="302.7" r="7" style="fill:#fff"/><circle cx="74.3" cy="690.5" r="4.8" style="fill:#fff"/><circle cx="203.2" cy="619.3" r="3" style="fill:#fff"/><circle cx="359.8" cy="745.3" r="5.5" style="fill:#fff"/><circle cx="639.5" cy="691.7" r="4.6" style="fill:#fff"/><circle cx="762.1" cy="691.7" r="4.6" style="fill:#fff"/><circle cx="859.9" cy="641.8" r="3.8" style="fill:#fff"/><circle cx="829.6" cy="577.4" r="2.1" style="fill:#fff"/><circle cx="777.2" cy="575.3" r="4.3" style="fill:#fff"/><circle cx="699" cy="529.2" r="3.5" style="fill:#fff"/><circle cx="660.5" cy="563.3" r="5" style="fill:#fff"/><circle cx="602.2" cy="398.3" r="2" style="fill:#fff"/><circle cx="538.8" cy="437.7" r="3.3" style="fill:#fff"/><circle cx="462.2" cy="235" r="2" style="fill:#fff"/><circle cx="635.2" cy="109.3" r="3.7" style="fill:#fff"/><circle cx="912.8" cy="93" r="5.3" style="fill:#fff"/><circle cx="1009.2" cy="52.7" r="5" style="fill:#fff"/><circle cx="778" cy="42.8" r="3.2" style="fill:#fff"/><circle cx="528.3" cy="19.2" r="1.5" style="fill:#fff"/><circle cx="342.4" cy="46.4" r="3.5" style="fill:#fff"/><circle cx="152.5" cy="46.7" r="7" style="fill:#fff"/><circle cx="43.8" cy="38.6" r="4.3" style="fill:#fff"/><circle cx="67.5" cy="155.7" r="4" style="fill:#fff"/><circle cx="191.8" cy="159.3" r="7.7" style="fill:#fff"/><circle cx="297.8" cy="190" r="5" style="fill:#fff"/><circle cx="506.1" cy="191.8" r="3.2" style="fill:#fff"/><circle cx="620.6" cy="250.3" r="3.8" style="fill:#fff"/><circle cx="768.5" cy="194.9" r="6.3" style="fill:#fff"/><circle cx="757.2" cy="347.3" r="3" style="fill:#fff"/><circle cx="882.7" cy="250.3" r="3.8" style="fill:#fff"/><circle cx="831.9" cy="406" r="2.3" style="fill:#fff"/><circle cx="699" cy="332.2" r="3.5" style="fill:#fff"/><circle cx="544.1" cy="307.9" r="5.3" style="fill:#fff"/><circle cx="442.9" cy="352.7" r="5.4" style="fill:#fff"/><circle cx="365.7" cy="293.6" r="5.9" style="fill:#fff"/><circle cx="276.2" cy="311.9" r="4" style="fill:#fff"/><circle cx="144.5" cy="383.3" r="1.6" style="fill:#fff"/><circle cx="65.8" cy="478" r="5.7" style="fill:#fff"/><circle cx="260.8" cy="485.4" r="6" style="fill:#fff"/><circle cx="178.2" cy="538.3" r="4" style="fill:#fff"/><circle cx="413" cy="421.2" r="3.5" style="fill:#fff"/><circle cx="375.3" cy="536.3" r="3.6" style="fill:#fff"/><circle cx="385.2" cy="663.9" r="6.3" style="fill:#fff"/><circle cx="2031.2" cy="590.9" r="2.7" style="fill:#fff"/><circle cx="2406.2" cy="302.7" r="7" style="fill:#fff"/><circle cx="2425.7" cy="690.5" r="4.8" style="fill:#fff"/><circle cx="2296.8" cy="619.3" r="3" style="fill:#fff"/><circle cx="2140.2" cy="745.3" r="5.6" style="fill:#fff"/><circle cx="1860.5" cy="691.7" r="4.6" style="fill:#fff"/><circle cx="1737.9" cy="691.7" r="4.6" style="fill:#fff"/><circle cx="1640.1" cy="641.8" r="3.8" style="fill:#fff"/><circle cx="1670.4" cy="577.4" r="2.1" style="fill:#fff"/><circle cx="1722.8" cy="575.3" r="4.3" style="fill:#fff"/><circle cx="1801" cy="529.2" r="3.5" style="fill:#fff"/><circle cx="1839.5" cy="563.3" r="5" style="fill:#fff"/><circle cx="1897.8" cy="398.3" r="2" style="fill:#fff"/><circle cx="1961.2" cy="437.7" r="3.3" style="fill:#fff"/><circle cx="2037.8" cy="235" r="2" style="fill:#fff"/><circle cx="1864.8" cy="109.3" r="3.7" style="fill:#fff"/><circle cx="1587.2" cy="93" r="5.3" style="fill:#fff"/><circle cx="1490.8" cy="52.7" r="5" style="fill:#fff"/><circle cx="1722" cy="42.8" r="3.2" style="fill:#fff"/><circle cx="1971.7" cy="19.2" r="1.5" style="fill:#fff"/><circle cx="2157.6" cy="46.4" r="3.5" style="fill:#fff"/><circle cx="2347.5" cy="46.7" r="7" style="fill:#fff"/><circle cx="2456.3" cy="38.6" r="4.3" style="fill:#fff"/><circle cx="2432.5" cy="155.7" r="4" style="fill:#fff"/><circle cx="2308.2" cy="159.3" r="7.7" style="fill:#fff"/><circle cx="2202.2" cy="190" r="5" style="fill:#fff"/><circle cx="1993.9" cy="191.8" r="3.2" style="fill:#fff"/><circle cx="1879.4" cy="250.3" r="3.8" style="fill:#fff"/><circle cx="1731.5" cy="194.9" r="6.3" style="fill:#fff"/><circle cx="1742.8" cy="347.3" r="3" style="fill:#fff"/><circle cx="1617.3" cy="250.3" r="3.8" style="fill:#fff"/><circle cx="1668.1" cy="406" r="2.3" style="fill:#fff"/><circle cx="1801" cy="332.2" r="3.5" style="fill:#fff"/><circle cx="1955.9" cy="307.9" r="5.3" style="fill:#fff"/><circle cx="2057.1" cy="352.7" r="5.4" style="fill:#fff"/><circle cx="2134.3" cy="293.6" r="5.9" style="fill:#fff"/><circle cx="2223.8" cy="311.9" r="4" style="fill:#fff"/><circle cx="2355.5" cy="383.3" r="1.6" style="fill:#fff"/><circle cx="2434.2" cy="478" r="5.7" style="fill:#fff"/><circle cx="2239.2" cy="485.4" r="6" style="fill:#fff"/><circle cx="2321.8" cy="538.3" r="4" style="fill:#fff"/><circle cx="2087" cy="421.2" r="3.5" style="fill:#fff"/><circle cx="2124.8" cy="536.3" r="3.6" style="fill:#fff"/><circle cx="2114.8" cy="663.9" r="6.3" style="fill:#fff"/><circle cx="1154.7" cy="97.3" r="4.3" style="fill:#fff"/><circle cx="1314.3" cy="41" r="6" style="fill:#fff"/><circle cx="1429.5" cy="140.8" r="5.8" style="fill:#fff"/><circle cx="1131.9" cy="20" r="7.1" style="fill:#fff"/><circle cx="1006.7" cy="172.8" r="2.5" style="fill:#fff"/><circle cx="517.2" cy="75.8" r="3.5" style="fill:#fff"/><circle cx="399.7" cy="105" r="3.3" style="fill:#fff"/><circle cx="1998.6" cy="130.5" r="1.5" style="fill:#fff"/><circle cx="1959.5" cy="36" r="1.7" style="fill:#fff"/><circle cx="2133.8" cy="103.8" r="5.5" style="fill:#fff"/><circle cx="1965.3" cy="525" r="4.1" style="fill:#fff"/></g><g id="mid_ground"><linearGradient id="SVGID_2_" x1="1250" x2="1250" y1="643" y2="4.95" gradientTransform="matrix(1 0 0 -1 0 1600)" gradientUnits="userSpaceOnUse"><stop offset=".07" stop-color="#ff47ff"/><stop offset=".59" stop-color="#0831bf"/><stop offset="1" stop-color="#500496"/></linearGradient><rect width="2500" height="658.9" y="941.1" style="fill:url(#SVGID_2_)"/><defs><rect id="SVGID_3_" width="2500" height="658.9" y="941.1"/></defs><clipPath id="SVGID_4_"><use xlink:href="#SVGID_3_" overflow="visible"/></clipPath><g style="clip-path:url(#SVGID_4_)"><path d="M2523.4,949.9l-0.3-0.2H-23.1l-1762.6,841.9l-6,2.8h6083.3L2523.4,949.9z M2666.4,1021.5h-84.8l-68.3-34.9      h80.1L2666.4,1021.5z M79.2,1170.7h106.7l-78,60.8H-7.1L79.2,1170.7z M-12.3,1231.5h-114.6l94.4-60.8H73.9L-12.3,1231.5z       M2507.1,1231.5h-114.9l-78-60.8h106.7L2507.1,1231.5z M2426.1,1170.7h106.4l94.4,60.8h-114.6L2426.1,1170.7z M302.4,1170.7      h107.3l-61.6,60.8H232.5L302.4,1170.7z M228,1231.6H112.7l78-60.8h107L228,1231.6z M414,1170.8h107.6l-53.4,60.8H352.4      L414,1170.8z M525.6,1170.8h107.8l-45.2,60.8H472.2L525.6,1170.8z M637.3,1170.8h108.1l-37,60.8H592L637.3,1170.8z       M748.9,1170.8h108.3l-28.7,60.8H711.9L748.9,1170.8z M860.6,1170.8H969l-20.5,60.8H831.8L860.6,1170.8z M972.2,1170.8h108.6      l-12.3,60.8H951.7L972.2,1170.8z M1083.9,1170.8h108.7l-4.1,60.8h-117L1083.9,1170.8z M1195.7,1170.8h108.8l4.1,60.8h-117      L1195.7,1170.8z M1307.4,1170.8h108.7l12.3,60.8h-117L1307.4,1170.8z M1419.2,1170.8h108.6l20.5,60.8h-116.9L1419.2,1170.8z       M1531,1170.8h108.5l28.7,60.8h-116.8L1531,1170.8z M1642.8,1170.8h108.3l37,60.8h-116.6L1642.8,1170.8z M1754.7,1170.8h108.1      l45.2,60.8h-116.4L1754.7,1170.8z M1866.6,1170.8h107.9l53.4,60.8h-116.1L1866.6,1170.8z M1978.4,1170.8H2086l61.6,60.8h-115.8      L1978.4,1170.8z M2090.3,1170.8h107.3l69.8,60.8h-115.6L2090.3,1170.8z M2202.3,1170.8h107l78,60.8H2272L2202.3,1170.8z       M2310.3,1167.8l-67.1-52.3h99.3l74.1,52.3H2310.3L2310.3,1167.8z M2305.4,1167.8h-106.7l-60-52.3h99.6L2305.4,1167.8z       M2194.3,1167.8h-107l-52.9-52.3h99.9L2194.3,1167.8z M2083.1,1167.8h-107.3l-45.9-52.3h100.2L2083.1,1167.8z M1971.8,1167.8      h-107.5l-38.8-52.3h100.4L1971.8,1167.8z M1860.6,1167.8h-107.8l-31.8-52.3h100.7L1860.6,1167.8z M1749.4,1167.8h-108      l-24.7-52.3h100.9L1749.4,1167.8z M1638.1,1167.8H1530l-17.7-52.3h101.1L1638.1,1167.8z M1526.8,1167.8h-108.3l-10.6-52.3h101.2      L1526.8,1167.8z M1415.5,1167.8h-108.3l-3.5-52.3h101.3L1415.5,1167.8z M1304.2,1167.8h-108.4l3.5-52.3h101.3L1304.2,1167.8z       M1192.9,1167.8h-108.4l10.6-52.3h101.3L1192.9,1167.8z M1081.5,1167.8H973.2l17.7-52.3H1092L1081.5,1167.8z M970.1,1167.8      H861.9l24.7-52.3h101L970.1,1167.8z M858.6,1167.8h-108l31.8-52.3h100.9L858.6,1167.8z M747.2,1167.8H639.4l38.8-52.3h100.7      L747.2,1167.8z M635.7,1167.8H528.2l45.9-52.3h100.4L635.7,1167.8z M524.2,1167.8H417l53-52.3h100.1L524.2,1167.8z       M412.8,1167.8h-107l60-52.3h99.9L412.8,1167.8z M301.3,1167.8H194.6l67.1-52.3h99.6L301.3,1167.8z M189.7,1167.8H83.4      l74.1-52.3h99.3L189.7,1167.8z M104,1234.6L12.3,1306h-125l101.4-71.5L104,1234.6L104,1234.6z M108.9,1234.6h115.6l-82.1,71.4      H17.1L108.9,1234.6z M229.1,1234.6H345l-72.4,71.4H147L229.1,1234.6z M349.3,1234.6h116.2l-62.8,71.4H276.9L349.3,1234.6z       M469.6,1234.6h116.5L533,1306H406.8L469.6,1234.6z M589.8,1234.6h116.7l-43.5,71.4H536.7L589.8,1234.6z M710.1,1234.6H827      l-33.8,71.4H666.6L710.1,1234.6z M830.4,1234.6h117.1l-24.1,71.4H796.5L830.4,1234.6z M950.7,1234.6h117.3l-14.5,71.4H926.5      L950.7,1234.6z M1071,1234.6h117.3l-4.8,71.5h-127L1071,1234.6z M1191.3,1234.6h117.4l4.8,71.5h-127L1191.3,1234.6z       M1311.7,1234.6H1429l14.5,71.5h-127L1311.7,1234.6z M1432.1,1234.6h117.3l24.1,71.4h-126.9L1432.1,1234.6z M1552.5,1234.6      h117.1l33.8,71.5h-126.8L1552.5,1234.6z M1673,1234.6h117l43.4,71.5h-126.7L1673,1234.6z M1793.5,1234.6h116.7l53.1,71.4h-126.4      L1793.5,1234.6z M1913.9,1234.6h116.5l62.8,71.5H1967L1913.9,1234.6z M2034.4,1234.6h116.3l72.4,71.4h-125.9L2034.4,1234.6z       M2155,1234.6h116l82,71.4h-125.6L2155,1234.6z M2275.5,1234.6h115.6l91.7,71.5h-125.3L2275.5,1234.6z M2396,1234.6h115.3      l101.4,71.4h-125L2396,1234.6z M2516.6,1234.6h115l111,71.5h-124.6L2516.6,1234.6z M2637.1,1234.6h114.7l120.7,71.5h-124.3      L2637.1,1234.6z M2632.4,1231.6l-94.4-60.8h106l102.7,60.8H2632.4L2632.4,1231.6z M2533.3,1167.8l-81.2-52.3h98.6l88.2,52.3      H2533.3L2533.3,1167.8z M2527.8,1167.8h-106l-74.1-52.3h98.9L2527.8,1167.8z M2343.4,1112.5l-64.3-45.3h92.4l70.4,45.3H2343.4      L2343.4,1112.5z M2338.2,1112.5h-98.8l-58.2-45.3h92.7L2338.2,1112.5z M2234.5,1112.5h-99.2l-52-45.3h93L2234.5,1112.5z       M2130.8,1112.5h-99.5l-45.9-45.3h93.3L2130.8,1112.5z M2027,1112.5h-99.8l-39.8-45.3h93.6L2027,1112.5z M1923.3,1112.5h-100      l-33.7-45.3h93.9L1923.3,1112.5z M1819.5,1112.5h-100.3l-27.6-45.3h94.1L1819.5,1112.5z M1715.7,1112.5h-100.5l-21.4-45.3h94.3      L1715.7,1112.5z M1611.9,1112.5h-100.6l-15.3-45.3h94.5L1611.9,1112.5z M1508.1,1112.5h-100.8l-9.2-45.3h94.7L1508.1,1112.5z       M1404.3,1112.5h-100.8l-3.1-45.3h94.7L1404.3,1112.5z M1300.4,1112.5h-100.9l3.1-45.3h94.8L1300.4,1112.5z M1196.5,1112.5      h-100.8l9.2-45.3h94.7L1196.5,1112.5z M1092.6,1112.5H991.9l15.3-45.3h94.6L1092.6,1112.5z M988.7,1112.5H888l21.4-45.3h94.5      L988.7,1112.5z M884.7,1112.5H784.3l27.5-45.3h94.3L884.7,1112.5z M780.7,1112.5H680.5l33.7-45.3h94.1L780.7,1112.5z       M676.7,1112.5h-100l39.8-45.3h93.9L676.7,1112.5z M572.7,1112.5H473l45.9-45.3h93.6L572.7,1112.5z M468.7,1112.5h-99.5l52-45.3      h93.3L468.7,1112.5z M364.7,1112.5h-99.2l58.2-45.3h93L364.7,1112.5z M260.7,1112.5h-98.9l64.3-45.3h92.7L260.7,1112.5z       M156.7,1112.5H58.1l70.4-45.3h92.4L156.7,1112.5z M152.4,1115.5l-74.2,52.3h-106l81.2-52.3h98.9L152.4,1115.5z M-33.2,1167.8      H-139l88.2-52.3h98.6L-33.2,1167.8z M-37.9,1170.8l-94.4,60.8h-114.4l102.7-60.8h106H-37.9z M-137,1234.6l-111,71.5h-124.5      l120.7-71.5h114.7H-137z M-131.4,1234.6h115l-101.5,71.4h-124.7L-131.4,1234.6z M-122.1,1309l-120.7,85.1h-136.7l132.2-85.1      h125.1H-122.1z M-116.9,1309H8.4l-109.2,85.1h-136.9L-116.9,1309z M13.4,1309H139l-97.7,85.1H-95.9L13.4,1309z M143.7,1309h126      l-86.2,85.1H45.9L143.7,1309z M274,1309h126.2l-74.7,85.1H187.6L274,1309z M404.3,1309h126.4l-63.2,85.1H329.4L404.3,1309z       M534.6,1309h126.7l-51.7,85.1H471.3L534.6,1309z M664.9,1309h127l-40.2,85.1H613.1L664.9,1309z M795.3,1309h127.2l-28.7,85.1      H754.9L795.3,1309z M925.6,1309h127.3l-17.2,85.1H896.8L925.6,1309z M1056,1309h127.4l-5.8,85.1h-138.9L1056,1309z M1186.4,1309      h127.4l5.8,85.1h-139L1186.4,1309z M1316.8,1309h127.4l17.2,85.1h-138.9L1316.8,1309z M1447.3,1309h127.3l28.7,85.1h-138.9      L1447.3,1309z M1577.8,1309H1705l40.2,85.1h-138.8L1577.8,1309z M1708.3,1309h127l51.7,85.1h-138.6L1708.3,1309z M1838.8,1309      h126.8l63.2,85.1h-138.4L1838.8,1309z M1969.4,1309H2096l74.7,85.1h-138.2L1969.4,1309z M2099.9,1309h126.3l86.2,85.1h-137.8      L2099.9,1309z M2230.5,1309h126l97.7,85.1h-137.6L2230.5,1309z M2361.1,1309h125.7l109.2,85.1h-137.3L2361.1,1309z M2491.7,1309      H2617l120.7,85.1h-136.9L2491.7,1309z M2622.3,1309h125.1l132.2,85.1h-136.7L2622.3,1309z M2752.9,1309h124.7l143.7,85.1H2885      L2752.9,1309z M2883.5,1309h124.4l155.2,85.1h-136L2883.5,1309z M2878.5,1306l-120.7-71.5H2872l130.3,71.4h-124L2878.5,1306z       M2752.7,1231.6l-102.7-60.8h105.7l110.9,60.8h-114H2752.7z M2645,1167.8l-88.2-52.3h98.2l95.3,52.3h-105.4H2645z       M2551.7,1112.5l-76.7-45.3h91.7l82.7,45.3h-97.8L2551.7,1112.5z M2545.8,1112.5h-98.2l-70.4-45.3h92.1L2545.8,1112.5z       M2372.5,1064.2l-61.6-39.6h86.3l66.9,39.6H2372.5L2372.5,1064.2z M2367,1064.2h-92l-56.2-39.6h86.6L2367,1064.2z       M2269.8,1064.2h-92.3l-50.9-39.6h87L2269.8,1064.2z M2172.6,1064.2h-92.6l-45.5-39.6h87.3L2172.6,1064.2z M2075.4,1064.2h-92.9      l-40.1-39.6h87.6L2075.4,1064.2z M1978.2,1064.2h-93.2l-34.9-39.6h87.9L1978.2,1064.2z M1881,1064.2h-93.5l-29.4-39.6h88      L1881,1064.2z M1783.7,1064.2H1690l-24.1-39.6h88.4L1783.7,1064.2z M1686.5,1064.2h-93.9l-18.7-39.6h88.6L1686.5,1064.2z       M1589.2,1064.2H1495l-13.4-39.6h88.8L1589.2,1064.2z M1491.9,1064.2h-94.3l-8-39.6h88.9L1491.9,1064.2z M1394.6,1064.2h-94.3      l-2.7-39.6h89L1394.6,1064.2z M1297.3,1064.2h-94.3l2.7-39.6h89L1297.3,1064.2z M1199.9,1064.2h-94.3l8-39.6h89L1199.9,1064.2z       M1102.5,1064.2h-94.3l13.4-39.6h88.9L1102.5,1064.2z M1005.1,1064.2h-94.2l18.7-39.6h88.8L1005.1,1064.2z M907.7,1064.2h-94.1      l24.1-39.6h88.6L907.7,1064.2z M810.2,1064.2h-93.8l29.4-39.6h88.4L810.2,1064.2z M712.8,1064.2h-93.6l34.8-39.6h88.1      L712.8,1064.2z M615.3,1064.2h-93.3l40.1-39.6H650L615.3,1064.2z M517.8,1064.2h-93l45.5-39.6h87.6L517.8,1064.2z M420.3,1064.2      h-92.7l50.9-39.6h87.3L420.3,1064.2z M322.7,1064.2h-92.4l56.2-39.6h87L322.7,1064.2z M225.2,1064.2h-92l61.6-39.6h86.6      L225.2,1064.2z M127.7,1064.2H36l66.9-39.6h86.3L127.7,1064.2z M123,1067.2l-70.4,45.3h-98.3l76.5-45.3h92H123z M-51.4,1112.5      h-97.8l82.7-45.3H25L-51.4,1112.5z M-56.5,1115.5l-88.2,52.3h-105.4l95.3-52.3H-56.5L-56.5,1115.5z M-149.8,1170.8l-102.7,60.8      h-114l110.9-60.8H-149.8L-149.8,1170.8z M-257.6,1234.6l-120.8,71.4h-124l130.3-71.4h114.3H-257.6z M-383.4,1309l-143.7,85.1      H-663l155.2-85.1H-383.4z M-377.5,1309h124.7l-132.2,85.1h-136.2L-377.5,1309z M-389.6,1397.1l-159.7,102.8h-150.5l173.6-102.8      H-389.6L-389.6,1397.1z M-384.1,1397.1h137L-393,1499.9h-150.8L-384.1,1397.1z M-241.9,1397.1h137.3l-131.9,102.8h-151.2      L-241.9,1397.1z M-99.7,1397.1H37.9l-118,102.8h-151.5L-99.7,1397.1z M42.4,1397.1h137.9L76.2,1499.9H-75.6L42.4,1397.1z       M184.6,1397.1h138.2l-90.3,102.8H80.5L184.6,1397.1z M326.8,1397.1h138.5l-76.4,102.8H236.5L326.8,1397.1z M469,1397.1h138.7      l-62.5,102.8H392.6L469,1397.1z M611.3,1397.1h138.9l-48.6,102.8H548.8L611.3,1397.1z M753.5,1397.1h139.1l-34.7,102.8h-153      L753.5,1397.1z M895.8,1397.1H1035l-20.8,102.8H861L895.8,1397.1z M1038,1397.1h139.3l-6.9,102.8h-153.2L1038,1397.1z       M1180.3,1397.1h139.3l6.9,102.8h-153.2L1180.3,1397.1z M1322.7,1397.1H1462l20.8,102.8h-153.2L1322.7,1397.1z M1465,1397.1      h139.2l34.7,102.8h-153.1L1465,1397.1z M1607.4,1397.1h139.1l48.6,102.8h-153L1607.4,1397.1z M1749.8,1397.1h138.9l62.5,102.8      h-152.8L1749.8,1397.1z M1892.3,1397.1H2031l76.4,102.8h-152.6L1892.3,1397.1z M2034.7,1397.1h138.5l90.3,102.8h-152.4      L2034.7,1397.1z M2177.2,1397.1h138.2l104.2,102.8h-152.1L2177.2,1397.1z M2319.7,1397.1h137.9l118,102.8h-151.8L2319.7,1397.1z       M2462.1,1397.1h137.6l131.9,102.8h-151.5L2462.1,1397.1z M2604.6,1397.1h137.3l145.8,102.8h-151.2L2604.6,1397.1z       M2747.1,1397.1h137l159.7,102.8H2893L2747.1,1397.1z M2889.6,1397.1h136.6l173.6,102.8h-150.5L2889.6,1397.1z M3032.1,1397.1      h136.3l187.5,102.8h-150.2L3032.1,1397.1z M3174.7,1397.1h135.9l201.4,102.8h-149.8L3174.7,1397.1z M3169.2,1394.1L3014,1309      h124l166.7,85.1H3169.2z M3008.6,1306l-130.4-71.5h114l140,71.5H3008.6z M2872.7,1231.5l-110.9-60.8h105.3l119.1,60.8H2872.7      L2872.7,1231.5z M2756.4,1167.7l-95.3-52.3h97.9l102.4,52.3H2756.4L2756.4,1167.7z M2655.6,1112.4l-82.7-45.3h91.4l88.8,45.3      H2655.6L2655.6,1112.4z M2567.5,1064.1l-72.3-39.6h85.6l77.6,39.6H2567.5L2567.5,1064.1z M2561.3,1064.1H2470l-67-39.6h86      L2561.3,1064.1z M2398,1021.5l-58.9-34.9h80.8l63.6,34.9H2398z M2392.1,1021.5h-85.9l-54.2-34.9h81.2L2392.1,1021.5z       M2300.7,1021.5h-86.2l-49.5-34.9h81.5L2300.7,1021.5z M2209.3,1021.5h-86.6l-44.8-34.9h81.9L2209.3,1021.5z M2117.8,1021.5      h-86.9l-40-34.9h82.1L2117.8,1021.5z M2026.4,1021.5h-87.2l-35.3-34.9h82.5L2026.4,1021.5z M1934.9,1021.5h-87.5l-30.6-34.9      h82.8L1934.9,1021.5z M1843.5,1021.5h-87.7l-25.9-34.9h83L1843.5,1021.5z M1752,1021.5h-88l-21.2-34.9h83.2L1752,1021.5z       M1660.5,1021.5h-88.2l-16.5-34.9h83.5L1660.5,1021.5z M1569,1021.5h-88.4l-11.8-34.9h83.7L1569,1021.5z M1477.5,1021.5H1389      l-7.1-34.9h83.8L1477.5,1021.5z M1385.9,1021.5h-88.6l-2.4-34.9h83.9L1385.9,1021.5z M1294.3,1021.5h-88.6l2.4-34.9h83.9      L1294.3,1021.5z M1202.7,1021.5h-88.6l7.1-34.9h83.9L1202.7,1021.5z M1111.1,1021.5h-88.5l11.8-34.9h83.8L1111.1,1021.5z       M1019.5,1021.5H931l16.5-34.9h83.6L1019.5,1021.5z M927.8,1021.5h-88.2l21.2-34.9h83.5L927.8,1021.5z M836.1,1021.5h-88      l25.9-34.9h83.3L836.1,1021.5z M744.4,1021.5h-87.8l30.6-34.9h83L744.4,1021.5z M652.6,1021.5h-87.5l35.3-34.9h82.8      L652.6,1021.5z M560.9,1021.5h-87.2l40-34.9h82.5L560.9,1021.5z M469.1,1021.5h-86.9l44.8-34.9h82.2L469.1,1021.5z       M377.4,1021.5h-86.6l49.5-34.9h81.9L377.4,1021.5z M285.6,1021.5h-86.3l54.2-34.9H335L285.6,1021.5z M193.9,1021.5h-85.9      l58.9-34.9H248L193.9,1021.5z M102.1,1021.5H16.5l63.6-34.9h80.8L102.1,1021.5z M97,1024.5l-66.9,39.6h-91.3l72.2-39.6H97      L97,1024.5z M-67.4,1064.2h-90.9l77.6-39.6H4.8L-67.4,1064.2z M-72.9,1067.2l-82.7,45.3H-253l88.8-45.3H-72.9L-72.9,1067.2z       M-161,1115.5l-95.3,52.3h-105l102.4-52.3H-161L-161,1115.5z M-261.8,1170.7l-110.9,60.8h-113.6l119.1-60.8H-261.8      L-261.8,1170.7z M-378.1,1234.5l-130.4,71.5h-123.6l140-71.5L-378.1,1234.5L-378.1,1234.5z M-514,1309l-155.2,85.1h-135.5      L-638,1309H-514z M-674.6,1397.1l-187.5,102.8h-149.8l201.4-102.8H-674.6z M-668.4,1397.1h136.3l-173.6,102.8h-150.2      L-668.4,1397.1z M-710.8,1502.9l-213.5,126.5H-1092l230.6-126.5H-710.8L-710.8,1502.9z M-704.9,1502.9H-554l-196.5,126.5h-168      L-704.9,1502.9z M-548.5,1502.9h151.3l-179.4,126.5h-168.3L-548.5,1502.9z M-392,1502.9h151.6l-162.3,126.5h-168.7L-392,1502.9z       M-235.5,1502.9h151.9l-145.2,126.5h-169L-235.5,1502.9z M-79,1502.9H73.2L-55,1629.4h-169.3L-79,1502.9z M77.4,1502.9h152.5      l-111,126.5H-50.7L77.4,1502.9z M233.9,1502.9h152.8l-94,126.5H122.9L233.9,1502.9z M390.4,1502.9h153l-76.9,126.5H296.5      L390.4,1502.9z M546.9,1502.9h153.2l-59.8,126.5H470L546.9,1502.9z M703.5,1502.9h153.4l-42.7,126.5H643.7L703.5,1502.9z       M860,1502.9h153.5l-25.6,126.5H817.3L860,1502.9z M1016.6,1502.9h153.6l-8.5,126.5H991L1016.6,1502.9z M1173.2,1502.9h153.6      l8.5,126.5h-170.7L1173.2,1502.9z M1329.8,1502.9h153.6l25.6,126.5h-170.6L1329.8,1502.9z M1486.5,1502.9H1640l42.7,126.5      h-170.6L1486.5,1502.9z M1643.2,1502.9h153.4l59.8,126.5h-170.5L1643.2,1502.9z M1799.9,1502.9h153.2l76.9,126.5h-170.3      L1799.9,1502.9z M1956.6,1502.9h153l94,126.5h-170.1L1956.6,1502.9z M2113.3,1502.9h152.8l111,126.5h-169.8L2113.3,1502.9z       M2270.1,1502.9h152.5l128.1,126.5h-169.6L2270.1,1502.9z M2426.9,1502.9h152.2l145.2,126.5H2555L2426.9,1502.9z M2583.7,1502.9      h151.9l162.3,126.5h-169L2583.7,1502.9z M2740.4,1502.9H2892l179.4,126.5h-168.7L2740.4,1502.9z M2897.2,1502.9h151.3      l196.5,126.5h-168.4L2897.2,1502.9z M3054,1502.9h150.9l213.5,126.5h-168L3054,1502.9z M3210.8,1502.9h150.6l230.6,126.5h-167.6      L3210.8,1502.9z M3367.6,1502.9h150.2l247.7,126.5h-167.3L3367.6,1502.9z M3524.5,1502.9h149.9l264.8,126.5h-167L3524.5,1502.9z       M3518.6,1499.9l-201.4-102.8h135.6l215.2,102.8L3518.6,1499.9L3518.6,1499.9z M3311.3,1394.1l-166.7-85.1h123.7l178.2,85.1      L3311.3,1394.1L3311.3,1394.1z M3138.8,1306l-140-71.5h113.6L3262,1306H3138.8z M2992.9,1231.5l-119.1-60.8h105l127.3,60.8      H2992.9L2992.9,1231.5z M2867.9,1167.7l-102.4-52.3h97.5l109.4,52.3H2867.9L2867.9,1167.7z M2759.6,1112.4l-88.8-45.3h91      l94.9,45.3H2759.6L2759.6,1112.4z M2665,1064.2l-77.6-39.6h85.2l83,39.6H2665z M2574.9,1021.5h-85.2l-63.6-34.9h80.5      L2574.9,1021.5z M2420.7,983.6l-56.3-30.9h75.9l60.5,30.9H2420.7L2420.7,983.6z M2414.4,983.6H2334l-52.1-30.9h76.3      L2414.4,983.6z M2328.1,983.6h-80.8l-48-30.9h76.7L2328.1,983.6z M2241.8,983.6h-81.1l-43.8-30.9h76.9L2241.8,983.6z       M2155.5,983.6H2074l-39.6-30.9h77.3L2155.5,983.6z M2069.2,983.6h-81.8l-35.4-30.9h77.6L2069.2,983.6z M1982.8,983.6h-82.1      l-31.3-30.9h77.9L1982.8,983.6z M1896.5,983.6h-82.4l-27.1-30.9h78.2L1896.5,983.6z M1810.1,983.6h-82.6l-22.9-30.9h78.4      L1810.1,983.6z M1723.8,983.6h-82.9l-18.8-30.9h78.7L1723.8,983.6z M1637.4,983.6h-83.1l-14.6-30.9h78.9L1637.4,983.6z       M1551,983.6h-83.2l-10.4-30.9h79.1L1551,983.6z M1464.6,983.6h-83.4l-6.2-30.9h79.2L1464.6,983.6z M1378.2,983.6h-83.4      l-2.1-30.9h79.3L1378.2,983.6z M1291.7,983.6h-83.5l2.1-30.9h79.3L1291.7,983.6z M1205.2,983.6h-83.4l6.3-30.9h79.3      L1205.2,983.6z M1118.7,983.6h-83.4l10.4-30.9h79.2L1118.7,983.6z M1032.2,983.6H949l14.6-30.9h79.1L1032.2,983.6z M945.6,983.6      h-83.1l18.8-30.9h78.9L945.6,983.6z M859,983.6h-82.8l22.9-30.9h78.7L859,983.6z M772.4,983.6h-82.6l27.1-30.9h78.5L772.4,983.6      z M685.8,983.6h-82.3l31.3-30.9H713L685.8,983.6z M599.2,983.6h-82l35.5-30.9h77.9L599.2,983.6z M512.6,983.6h-81.7l39.6-30.9      H548L512.6,983.6z M425.9,983.6h-81.4l43.8-30.9h77.3L425.9,983.6z M339.3,983.6h-81.1l48-30.9h76.9L339.3,983.6z M252.6,983.6      h-80.8l52.1-30.9h76.6L252.6,983.6z M166,983.6H85.6l56.3-30.9h76.3L166,983.6z M79.3,983.6H-0.7l60.5-30.9h75.9L79.3,983.6z       M73.8,986.6l-63.6,34.9h-85.2l68.3-34.9H73.8L73.8,986.6z M-81.5,1021.5h-84.8l73-34.9h80.1L-81.5,1021.5z M-87.4,1024.5      l-77.6,39.6h-90.6l83-39.6H-87.4L-87.4,1024.5z M-170.9,1067.2l-88.8,45.3h-97.1l94.9-45.3H-170.9L-170.9,1067.2z       M-265.6,1115.5l-102.4,52.3h-104.6l109.4-52.3H-265.6L-265.6,1115.5z M-373.8,1170.7l-119.1,60.8h-113.2l127.3-60.8H-373.8      L-373.8,1170.7z M-498.8,1234.5l-140,71.5H-762l149.7-71.5H-498.8L-498.8,1234.5z M-644.6,1309l-166.7,85.1h-135.2l178.2-85.1      H-644.6z M-817.2,1397.1l-201.4,102.8H-1168l215.3-102.8H-817.2L-817.2,1397.1z M-1024.4,1502.9l-247.7,126.5h-166.9      l264.8-126.5H-1024.4L-1024.4,1502.9z M-1017.8,1502.9h150.2l-230.6,126.5h-167.3L-1017.8,1502.9z M-1103.7,1632.4l-290.1,159.1      H-1583l311.6-159.1H-1103.7L-1103.7,1632.4z M-1097.5,1632.4h168l-268.6,159.1h-189.5L-1097.5,1632.4z M-923.5,1632.4h168.4      l-247.1,159.1h-189.9L-923.5,1632.4z M-749.6,1632.4h168.8l-225.6,159.1h-190.2L-749.6,1632.4z M-575.6,1632.4h169.1      l-204.1,159.1h-190.6L-575.6,1632.4z M-401.6,1632.4h169.4l-182.7,159.1h-190.9L-401.6,1632.4z M-227.6,1632.4H-58l-161.2,159.1      h-191.2L-227.6,1632.4z M-53.6,1632.4h170l-139.8,159.1h-191.5L-53.6,1632.4z M120.4,1632.4h170.1l-118.2,159.1H-19.4      L120.4,1632.4z M294.4,1632.4h170.4L368,1791.5H176L294.4,1632.4z M468.4,1632.4h170.7l-75.2,159.1H371.5L468.4,1632.4z       M642.4,1632.4h170.8l-53.7,159.1H567L642.4,1632.4z M816.4,1632.4h171l-32.3,159.1H762.6L816.4,1632.4z M990.4,1632.4h171.1      l-10.7,159.1H958.1L990.4,1632.4z M1164.5,1632.4h171.1l10.7,159.1h-192.7L1164.5,1632.4z M1338.6,1632.4h171.1l32.2,159.1      h-192.6L1338.6,1632.4z M1512.8,1632.4h171l53.7,159.1h-192.6L1512.8,1632.4z M1687,1632.4h170.9l75.2,159.1h-192.4L1687,1632.4      z M1861.1,1632.4h170.7l96.7,159.1h-192.3L1861.1,1632.4z M2035.4,1632.4h170.5l118.2,159.1h-192L2035.4,1632.4z M2209.6,1632.4      h170.3l139.7,159.1h-191.8L2209.6,1632.4z M2383.8,1632.4h170l161.1,159.1h-191.6L2383.8,1632.4z M2558.1,1632.4h169.7      l182.6,159.1h-191.3L2558.1,1632.4z M2732.4,1632.4h169.4l204.1,159.1h-190.9L2732.4,1632.4z M2906.6,1632.4h169.1l225.6,159.1      h-190.6L2906.6,1632.4z M3080.9,1632.4h168.7l247.1,159.1h-190.3L3080.9,1632.4z M3255.2,1632.4h168.4l268.5,159.1h-189.9      L3255.2,1632.4z M3429.5,1632.4h168.1l290.1,159.1H3698L3429.5,1632.4z M3603.8,1632.4h167.7l311.5,159.1h-189.2L3603.8,1632.4z       M3778.1,1632.4h167.3l333,159.1h-188.9L3778.1,1632.4z M2587,983.6h-79.7l-60.5-30.9h75.5L2587,983.6z M-22.4,952.8h75.5      l-60.5,30.9H-87L-22.4,952.8z M-1445.3,1632.4h167.3l-311.6,159.1h-188.8L-1445.3,1632.4z" style="fill:#fff"/></g><polygon points="943 1492.2 972.6 1397.1 1383.6 1397.1 1403.6 1492.2" style="opacity:.75;fill:#253bc0"/><polygon points="0 1285.8 282.1 1285.8 373.7 1191 0 1191" style="fill:#5d2085;opacity:.75"/><polygon points="1963.7 1248.3 2040.3 1351 2500 1351 2500 1248.3" style="opacity:.75;fill:#253bc0"/><polygon points="1876.3 1075.7 1403.6 1075.7 1419.7 1158.3 1950.3 1158.3" style="opacity:.75;fill:#d176aa"/><polygon points="0 1408.3 289.7 1408.3 118.3 1600 0 1600" style="fill:#3c3bc4;opacity:.75"/><polygon points="2315.6 1600 2189 1464.6 1811.1 1464.6 1872.6 1600" style="fill:#573fcc;opacity:.75"/><polygon points="654 1032 998 1032 976 1105 595 1105" style="opacity:.75;fill:#253bc0"/></g><g id="foreground"><defs><rect id="SVGID_5_" width="2500" height="1264.3"/></defs><clipPath id="SVGID_6_"><use xlink:href="#SVGID_5_" overflow="visible"/></clipPath><g style="clip-path:url(#SVGID_6_)"><radialGradient id="SVGID_7_" cx="1250" cy="1086.1" r="690.13" gradientTransform="matrix(1 0 0 -1 0 1600)" gradientUnits="userSpaceOnUse"><stop offset="0" stop-color="#ff5800"/><stop offset=".26" stop-color="#ff47ff"/><stop offset=".52" stop-color="#8b47ff"/><stop offset=".55" stop-color="#743bd4"/><stop offset=".59" stop-color="#552b9c"/><stop offset=".63" stop-color="#3b1e6c"/><stop offset=".67" stop-color="#271448"/><stop offset=".71" stop-color="#190d2d"/><stop offset=".74" stop-color="#10091e"/><stop offset=".76" stop-color="#0d0718"/><stop offset="1"/></radialGradient><circle cx="1250" cy="513.9" r="690.1" style="display:none;fill:url(#SVGID_7_)"/><linearGradient id="SVGID_8_" x1="1249.995" x2="1249.995" y1="1492.31" y2="928.13" gradientTransform="matrix(1 0 0 -1 0 1600)" gradientUnits="userSpaceOnUse"><stop offset="0" stop-color="#ff0"/><stop offset="1" stop-color="#ff04fb"/></linearGradient><path d="M836.9,505.8h826.3c-0.2-10.8-0.8-21.5-1.8-32.1H838.7C837.7,484.3,837.1,494.9,836.9,505.8z" style="fill:url(#SVGID_8_)"/><linearGradient id="SVGID_9_" x1="1249.995" x2="1249.995" y1="1492.31" y2="928.13" gradientTransform="matrix(1 0 0 -1 0 1600)" gradientUnits="userSpaceOnUse"><stop offset="0" stop-color="#ff0"/><stop offset="1" stop-color="#ff04fb"/></linearGradient><path d="M886.9,316.4h726.1c-6.8-12.4-14.2-24.5-22.2-36.2H909.2C901.1,291.9,893.7,304,886.9,316.4z" style="fill:url(#SVGID_9_)"/><linearGradient id="SVGID_10_" x1="1250.005" x2="1250.005" y1="1492.3" y2="928.13" gradientTransform="matrix(1 0 0 -1 0 1600)" gradientUnits="userSpaceOnUse"><stop offset="0" stop-color="#ff0"/><stop offset="1" stop-color="#ff04fb"/></linearGradient><path d="M845.9,600.4h808.3c2.1-9.9,3.9-19.9,5.2-30H840.6C842,580.5,843.7,590.5,845.9,600.4z" style="fill:url(#SVGID_10_)"/><linearGradient id="SVGID_11_" x1="1249.98" x2="1249.98" y1="1492.31" y2="928.13" gradientTransform="matrix(1 0 0 -1 0 1600)" gradientUnits="userSpaceOnUse"><stop offset="0" stop-color="#ff0"/><stop offset="1" stop-color="#ff04fb"/></linearGradient><path d="M840.5,458.4h819c-1.5-11.2-3.4-22.2-5.8-33.1H846.3C843.9,436.2,842,447.2,840.5,458.4z" style="fill:url(#SVGID_11_)"/><linearGradient id="SVGID_12_" x1="1250" x2="1250" y1="1492.31" y2="928.13" gradientTransform="matrix(1 0 0 -1 0 1600)" gradientUnits="userSpaceOnUse"><stop offset="0" stop-color="#ff0"/><stop offset="1" stop-color="#ff04fb"/></linearGradient><path d="M864.9,363.8h770.2c-4.7-12-9.9-23.7-15.7-35.2H880.6C874.9,340,869.6,351.7,864.9,363.8z" style="fill:url(#SVGID_12_)"/><linearGradient id="SVGID_13_" x1="1250" x2="1250" y1="1492.31" y2="928.13" gradientTransform="matrix(1 0 0 -1 0 1600)" gradientUnits="userSpaceOnUse"><stop offset="0" stop-color="#ff0"/><stop offset="1" stop-color="#ff04fb"/></linearGradient><path d="M849.7,411.1h800.7c-3-11.6-6.4-23-10.3-34.1H860C856.1,388.1,852.6,399.5,849.7,411.1z" style="fill:url(#SVGID_13_)"/><linearGradient id="SVGID_14_" x1="1249.995" x2="1249.995" y1="1492.31" y2="928.13" gradientTransform="matrix(1 0 0 -1 0 1600)" gradientUnits="userSpaceOnUse"><stop offset="0" stop-color="#ff0"/><stop offset="1" stop-color="#ff04fb"/></linearGradient><path d="M838.6,553.1h822.8c1-10.2,1.5-20.6,1.8-31H836.9C837.1,532.5,837.7,542.8,838.6,553.1z" style="fill:url(#SVGID_14_)"/><linearGradient id="SVGID_15_" x1="1249.995" x2="1249.995" y1="1492.31" y2="928.13" gradientTransform="matrix(1 0 0 -1 0 1600)" gradientUnits="userSpaceOnUse"><stop offset="0" stop-color="#ff0"/><stop offset="1" stop-color="#ff04fb"/></linearGradient><path d="M858.9,647.8h782.1c3.3-9.5,6.2-19.2,8.7-29H850.2C852.8,628.6,855.7,638.2,858.9,647.8z" style="fill:url(#SVGID_15_)"/><linearGradient id="SVGID_16_" x1="1250" x2="1250" y1="1492.3" y2="928.13" gradientTransform="matrix(1 0 0 -1 0 1600)" gradientUnits="userSpaceOnUse"><stop offset="0" stop-color="#ff0"/><stop offset="1" stop-color="#ff04fb"/></linearGradient><path d="M1250,927.1c41.1,0,82.1-6.1,121.4-18.1h-242.8C1167.9,921.1,1208.9,927.2,1250,927.1z" style="fill:url(#SVGID_16_)"/><linearGradient id="SVGID_17_" x1="1249.985" x2="1249.985" y1="1492.31" y2="928.13" gradientTransform="matrix(1 0 0 -1 0 1600)" gradientUnits="userSpaceOnUse"><stop offset="0" stop-color="#ff0"/><stop offset="1" stop-color="#ff04fb"/></linearGradient><path d="M992.5,837.1h515c9.8-7.8,19.3-16.1,28.4-24.8H964.1C973.2,821,982.6,829.2,992.5,837.1z" style="fill:url(#SVGID_17_)"/><linearGradient id="SVGID_18_" x1="1250.005" x2="1250.005" y1="1492.31" y2="928.13" gradientTransform="matrix(1 0 0 -1 0 1600)" gradientUnits="userSpaceOnUse"><stop offset="0" stop-color="#ff0"/><stop offset="1" stop-color="#ff04fb"/></linearGradient><path d="M1066.8,884.4h366.3c14.4-7.1,28.3-15.1,41.7-23.8h-449.7C1038.6,869.4,1052.5,877.3,1066.8,884.4z" style="fill:url(#SVGID_18_)"/><linearGradient id="SVGID_19_" x1="1250" x2="1250" y1="1492.3" y2="928.13" gradientTransform="matrix(1 0 0 -1 0 1600)" gradientUnits="userSpaceOnUse"><stop offset="0" stop-color="#ff0"/><stop offset="1" stop-color="#ff04fb"/></linearGradient><path d="M905.7,742.4h688.7c5.8-8.7,11.3-17.7,16.4-26.9H889.2C894.4,724.7,899.9,733.7,905.7,742.4z" style="fill:url(#SVGID_19_)"/><linearGradient id="SVGID_20_" x1="1250.025" x2="1250.025" y1="1492.3" y2="928.13" gradientTransform="matrix(1 0 0 -1 0 1600)" gradientUnits="userSpaceOnUse"><stop offset="0" stop-color="#ff0"/><stop offset="1" stop-color="#ff04fb"/></linearGradient><path d="M942.3,789.8h615.3c7.5-8.3,14.6-16.9,21.4-25.9H921C927.7,772.8,934.9,781.4,942.3,789.8z" style="fill:url(#SVGID_20_)"/><linearGradient id="SVGID_21_" x1="1250.02" x2="1250.02" y1="1492.31" y2="928.12" gradientTransform="matrix(1 0 0 -1 0 1600)" gradientUnits="userSpaceOnUse"><stop offset="0" stop-color="#ff0"/><stop offset="1" stop-color="#ff04fb"/></linearGradient><path d="M878.5,695.1h743c4.5-9.1,8.6-18.4,12.4-27.9H866.1C869.9,676.6,874.1,686,878.5,695.1z" style="fill:url(#SVGID_21_)"/><linearGradient id="SVGID_22_" x1="1250" x2="1250" y1="1492.31" y2="928.13" gradientTransform="matrix(1 0 0 -1 0 1600)" gradientUnits="userSpaceOnUse"><stop offset="0" stop-color="#ff0"/><stop offset="1" stop-color="#ff04fb"/></linearGradient><path d="M917.1,269.1h665.8c-9.6-13-19.9-25.4-30.9-37.2H948C937,243.6,926.7,256.1,917.1,269.1z" style="fill:url(#SVGID_22_)"/><linearGradient id="SVGID_23_" x1="1250" x2="1250" y1="1492.31" y2="928.13" gradientTransform="matrix(1 0 0 -1 0 1600)" gradientUnits="userSpaceOnUse"><stop offset="0" stop-color="#ff0"/><stop offset="1" stop-color="#ff04fb"/></linearGradient><path d="M1250,100.7c-49.7-0.1-99.1,8.9-145.7,26.4h291.3C1349.1,109.6,1299.7,100.6,1250,100.7z" style="fill:url(#SVGID_23_)"/><linearGradient id="SVGID_24_" x1="1249.995" x2="1249.995" y1="1492.31" y2="928.13" gradientTransform="matrix(1 0 0 -1 0 1600)" gradientUnits="userSpaceOnUse"><stop offset="0" stop-color="#ff0"/><stop offset="1" stop-color="#ff04fb"/></linearGradient><path d="M1014.3,174.4h471.3c-22.1-15.4-45.6-28.5-70.3-39.3h-330.8C1060,145.9,1036.4,159.1,1014.3,174.4z" style="fill:url(#SVGID_24_)"/><linearGradient id="SVGID_25_" x1="1249.995" x2="1249.995" y1="1492.31" y2="928.13" gradientTransform="matrix(1 0 0 -1 0 1600)" gradientUnits="userSpaceOnUse"><stop offset="0" stop-color="#ff0"/><stop offset="1" stop-color="#ff04fb"/></linearGradient><path d="M957.8,221.8h584.5c-13.8-13.8-28.5-26.6-44.1-38.3h-496.3C986.3,195.2,971.5,208,957.8,221.8z" style="fill:url(#SVGID_25_)"/></g><linearGradient id="SVGID_26_" x1="1250.25" x2="1250.25" y1="1109.01" y2="664.49" gradientTransform="matrix(1 0 0 -1 0 1600)" gradientUnits="userSpaceOnUse"><stop offset="0" stop-color="#2c005d"/><stop offset=".68" stop-color="#2c005d"/><stop offset=".73" stop-color="#320262"/><stop offset=".79" stop-color="#43086f"/><stop offset=".85" stop-color="#5e1184"/><stop offset=".91" stop-color="#7a1a99"/><stop offset="1" stop-color="#c200e2"/></linearGradient><polygon points="2500.1 817.5 2432 863.1 2284.9 753.8 2212.9 820 2026.9 687.8 1918.9 768.8 1783 665 1672.9 733.8 1445 555 1348.8 631.8 1162.8 459 796.8 778.8 688.8 715.8 634.8 781.8 508.8 682.8 373.7 841.8 266.1 761.1 149.3 849.3 75 793 0 864 0 952.8 2500.5 953" style="fill:url(#SVGID_26_)"/><linearGradient id="SVGID_27_" x1="107.665" x2="107.665" y1="1127.21" y2="727.08" gradientTransform="matrix(1 0 0 -1 0 1600)" gradientUnits="userSpaceOnUse"><stop offset="0" stop-color="#c20099"/><stop offset="1" stop-color="#7a1a99"/></linearGradient><polygon points="75 793 54.3 858.3 161 921 149.3 849.3" style="fill:url(#SVGID_27_)"/><linearGradient id="SVGID_28_" x1="319.935" x2="319.935" y1="1127.21" y2="727.08" gradientTransform="matrix(1 0 0 -1 0 1600)" gradientUnits="userSpaceOnUse"><stop offset="0" stop-color="#c20099"/><stop offset="1" stop-color="#7a1a99"/></linearGradient><polygon points="266.1 761.1 284 811.5 275.1 857 373.7 841.8" style="fill:url(#SVGID_28_)"/><linearGradient id="SVGID_29_" x1="571.755" x2="571.755" y1="1127.21" y2="727.08" gradientTransform="matrix(1 0 0 -1 0 1600)" gradientUnits="userSpaceOnUse"><stop offset="0" stop-color="#c20099"/><stop offset="1" stop-color="#7a1a99"/></linearGradient><polygon points="508.8 682.8 540 791.6 620.7 857 634.8 781.8" style="fill:url(#SVGID_29_)"/><linearGradient id="SVGID_30_" x1="756.88" x2="756.88" y1="1127.21" y2="727.08" gradientTransform="matrix(1 0 0 -1 0 1600)" gradientUnits="userSpaceOnUse"><stop offset="0" stop-color="#c20099"/><stop offset="1" stop-color="#7a1a99"/></linearGradient><polygon points="688.8 715.8 749 769.9 750.3 831.7 825 835.7 796.8 778.8" style="fill:url(#SVGID_30_)"/><linearGradient id="SVGID_31_" x1="1267.515" x2="1267.515" y1="1127.21" y2="727.08" gradientTransform="matrix(1 0 0 -1 0 1600)" gradientUnits="userSpaceOnUse"><stop offset="0" stop-color="#c20099"/><stop offset="1" stop-color="#7a1a99"/></linearGradient><polygon points="1465.7 663 1393.7 655 1445 555 1348.8 631.8 1162.8 459 1069.4 589.1 1146.2 629.9 1128.5 706 1218 725 1305.8 662.5 1265.7 817" style="fill:url(#SVGID_31_)"/><linearGradient id="SVGID_32_" x1="1727.93" x2="1727.93" y1="1127.21" y2="727.08" gradientTransform="matrix(1 0 0 -1 0 1600)" gradientUnits="userSpaceOnUse"><stop offset="0" stop-color="#c20099"/><stop offset="1" stop-color="#7a1a99"/></linearGradient><polygon points="1783 665 1672.9 733.8 1718.3 777.7 1767 729.7 1753 709.7" style="fill:url(#SVGID_32_)"/><linearGradient id="SVGID_33_" x1="1988.135" x2="1988.135" y1="1127.21" y2="727.08" gradientTransform="matrix(1 0 0 -1 0 1600)" gradientUnits="userSpaceOnUse"><stop offset="0" stop-color="#c20099"/><stop offset="1" stop-color="#7a1a99"/></linearGradient><polygon points="2026.9 687.8 2006.7 747.6 2057.4 800 1985 888.6 1966.2 800 1918.9 768.8" style="fill:url(#SVGID_33_)"/><linearGradient id="SVGID_34_" x1="2264.28" x2="2264.28" y1="1127.21" y2="727.08" gradientTransform="matrix(1 0 0 -1 0 1600)" gradientUnits="userSpaceOnUse"><stop offset="0" stop-color="#c20099"/><stop offset="1" stop-color="#7a1a99"/></linearGradient><polygon points="2284.9 753.8 2315.6 800 2265 824.8 2212.9 820" style="fill:url(#SVGID_34_)"/><linearGradient id="SVGID_35_" x1="2466.265" x2="2466.265" y1="1127.21" y2="727.08" gradientTransform="matrix(1 0 0 -1 0 1600)" gradientUnits="userSpaceOnUse"><stop offset="0" stop-color="#c20099"/><stop offset="1" stop-color="#7a1a99"/></linearGradient><polygon points="2432 863.1 2500.5 849.4 2500 813.7" style="fill:url(#SVGID_35_)"/></g></svg>